<svg fill="none" height="18" viewBox="0 0 18 18" width="18" xmlns="http://www.w3.org/2000/svg"><path d="m8.98745 18c-2.47699 0-4.59414-.8703-6.35147-2.6109-1.757319-1.7573-2.63598-3.8828-2.63598-6.37655 0-2.49372.878661-4.61924 2.63598-6.37657 1.75733-1.757319 3.87448-2.63598 6.35147-2.63598 2.47695 0 4.59415.878661 6.35145 2.63598 1.7741 1.75733 2.6611 3.88285 2.6611 6.37657 0 2.47695-.8787 4.59415-2.636 6.35145s-3.8828 2.636-6.37655 2.636zm4.76985-13.75732c-1.3222-1.33891-2.9121-2.00837-4.76985-2.00837-1.85774 0-3.4477.66946-4.76988 2.00837-1.30544 1.32217-1.95816 2.91213-1.95816 4.76987 0 1.85775.65272 3.44775 1.95816 4.76985 1.32218 1.3055 2.91214 1.9582 4.76988 1.9582 1.85775 0 3.44765-.6527 4.76985-1.9582 1.3389-1.3221 2.0084-2.9121 2.0084-4.76985 0-1.85774-.6695-3.4477-2.0084-4.76987zm-2.3347 8.20922-3.18829-2.3347c-.30126-.23435-.45188-.51887-.45188-.8536v-5.09624c0-.13389.05021-.25104.15062-.35146.11716-.10042.25105-.15063.40168-.15063h1.05439c.13389 0 .25105.05021.35147.15063.10041.10042.15062.21757.15062.35146v4.01674c0 .33473.15059.61925.45189.85356l2.3347 1.68204c.1172.0836.1841.2008.2009.3514.0167.1507-.0168.2845-.1005.4017l-.6276.8536c-.2008.2677-.4435.3096-.728.1255z" fill="#888"/></svg>